HIERARCHY
ROOT Hips
{
	OFFSET 0.000000 0.000000 0.000000
	CHANNELS 6 Xposition Yposition Zposition Zrotation Yrotation Xrotation 
	JOINT LHipJoint
	{
		OFFSET 0.000000 0.000000 0.000000
		CHANNELS 3 Zrotation Yrotation Xrotation
		JOINT LeftUpLeg
		{
			OFFSET 8.178360 -10.767780 5.035740
			CHANNELS 3 Zrotation Yrotation Xrotation
			JOINT LeftLeg
			{
				OFFSET 14.688660 -40.356780 0.000000
				CHANNELS 3 Zrotation Yrotation Xrotation
				JOINT LeftFoot
				{
					OFFSET 15.373200 -42.237540 0.000000
					CHANNELS 3 Zrotation Yrotation Xrotation
					JOINT LeftToeBase
					{
						OFFSET 0.945840 -2.598660 13.935300
						CHANNELS 3 Zrotation Yrotation Xrotation
						End Site
						{
							OFFSET 0.000000 0.000000 0.000000
						}
					}
				}
			}
		}
	}
	JOINT RHipJoint
	{
		OFFSET 0.000000 0.000000 0.000000
		CHANNELS 3 Zrotation Yrotation Xrotation
		JOINT RightUpLeg
		{
			OFFSET -7.833120 -10.767780 5.035740
			CHANNELS 3 Zrotation Yrotation Xrotation
			JOINT RightLeg
			{
				OFFSET -15.255180 -41.913300 0.000000
				CHANNELS 3 Zrotation Yrotation Xrotation
				JOINT RightFoot
				{
					OFFSET -15.409560 -42.337380 0.000000
					CHANNELS 3 Zrotation Yrotation Xrotation
					JOINT RightToeBase
					{
						OFFSET -0.988380 -2.715540 14.178900
						CHANNELS 3 Zrotation Yrotation Xrotation
						End Site
						{
							OFFSET 0.000000 0.000000 0.000000
						}
					}
				}
			}
		}
	}
	JOINT LowerBack
	{
		OFFSET 0.000000 0.000000 0.000000
		CHANNELS 3 Zrotation Yrotation Xrotation
		JOINT Spine
		{
			OFFSET 0.169620 12.213540 -1.160280
			CHANNELS 3 Zrotation Yrotation Xrotation
			JOINT Spine1
			{
				OFFSET 0.340320 12.293100 -0.256500
				CHANNELS 3 Zrotation Yrotation Xrotation
				JOINT Neck
				{
					OFFSET 0.000000 0.000000 0.000000
					CHANNELS 3 Zrotation Yrotation Xrotation
					JOINT Neck1
					{
						OFFSET -0.325020 10.477440 1.032120
						CHANNELS 3 Zrotation Yrotation Xrotation
						JOINT Head
						{
							OFFSET 0.624420 10.568160 -0.743820
							CHANNELS 3 Zrotation Yrotation Xrotation
							End Site
							{
								OFFSET 0.000000 0.000000 0.000000
							}
						}
					}
				}
				JOINT LeftShoulder
				{
					OFFSET 0.000000 0.000000 0.000000
					CHANNELS 3 Zrotation Yrotation Xrotation
					JOINT LeftArm
					{
						OFFSET 20.174460 7.205340 -1.867260
						CHANNELS 3 Zrotation Yrotation Xrotation
						JOINT LeftForeArm
						{
							OFFSET 29.898000 -0.000000 -0.000000
							CHANNELS 3 Zrotation Yrotation Xrotation
							JOINT LeftHand
							{
								OFFSET 20.901360 -0.000000 -0.000000
								CHANNELS 3 Zrotation Yrotation Xrotation
								JOINT LeftFingerBase
								{
									OFFSET 0.000000 0.000000 0.000000
									CHANNELS 3 Zrotation Yrotation Xrotation
									JOINT LeftHandIndex1
									{
										OFFSET 4.291560 -0.000000 -0.000000
										CHANNELS 3 Zrotation Yrotation Xrotation
										End Site
										{
											OFFSET 0.000000 0.000000 0.000000
										}
									}
								}
								JOINT LThumb
								{
									OFFSET 0.000000 0.000000 0.000000
									CHANNELS 3 Zrotation Yrotation Xrotation
									End Site
									{
										OFFSET 0.000000 0.000000 0.000000
									}
								}
							}
						}
					}
				}
				JOINT RightShoulder
				{
					OFFSET 0.000000 0.000000 0.000000
					CHANNELS 3 Zrotation Yrotation Xrotation
					JOINT RightArm
					{
						OFFSET -18.819600 8.244300 -2.427900
						CHANNELS 3 Zrotation Yrotation Xrotation
						JOINT RightForeArm
						{
							OFFSET -31.451400 -0.000000 -0.000000
							CHANNELS 3 Zrotation Yrotation Xrotation
							JOINT RightHand
							{
								OFFSET -20.665020 -0.000000 -0.000000
								CHANNELS 3 Zrotation Yrotation Xrotation
								JOINT RightFingerBase
								{
									OFFSET 0.000000 0.000000 0.000000
									CHANNELS 3 Zrotation Yrotation Xrotation
									JOINT RightHandIndex1
									{
										OFFSET -3.735180 -0.000000 -0.000000
										CHANNELS 3 Zrotation Yrotation Xrotation
										End Site
										{
											OFFSET 0.000000 0.000000 0.000000
										}
									}
								}
								JOINT RThumb
								{
									OFFSET 0.000000 0.000000 0.000000
									CHANNELS 3 Zrotation Yrotation Xrotation
									End Site
									{
										OFFSET 0.000000 0.000000 0.000000
									}
								}
							}
						}
					}
				}
			}
		}
	}
}
MOTION
Frames:	8
Frame Time:	0.0333333
-77.082102 106.809318 -72.771090 5.880291 1.975906 1.236207 -4.183220 2.399531 4.929493 -23.306939 -3.190499 12.073947 -1.857452 -0.309506 2.205120 1.135379 -10.106789 6.682407 0.011300 -0.686900 -1.887700 2.285862 -0.172748 -0.317238 7.573204 6.944453 -29.002438 0.168290 -6.872888 17.979855 1.030754 -7.186239 6.729919 -0.159400 2.572500 -7.090700 -6.479741 -1.417899 8.452254 0.898509 -2.284490 0.344798 3.305293 -1.580112 -2.864852 -11.864993 -5.582153 -18.827367 6.724597 -4.923125 15.855729 4.632700 -2.703200 13.662700 -6.658198 -2.015477 -1.346887 -80.408062 -10.480355 32.562768 16.199136 -22.621268 -4.202108 -1.571563 -2.674052 6.303314 17.647556 23.411602 8.608700 -7.125000 0.000000 0.000000 -12.130900 57.038600 -3.614400 5.177087 2.065659 -1.296155 84.111805 -6.054728 8.186723 -16.527743 24.784453 -4.101258 0.448484 -0.276747 3.955085 -14.731058 11.824726 -3.246400 7.125000 0.000000 0.000000 8.361100 -17.583800 5.503700 
-77.528952 106.521756 -69.184758 6.179763 2.557082 1.664791 -4.036158 2.508366 5.031667 -23.260816 -3.488964 13.847516 -1.824781 -0.336157 2.198589 1.140309 -10.693028 7.522347 0.135100 -2.369100 -6.526800 2.200219 -0.161990 -0.381205 7.916026 6.411328 -29.877104 0.212944 -6.832345 17.826597 0.939335 -6.611508 5.378399 -0.220900 3.025400 -8.349400 -7.018744 -1.615092 8.410485 0.944705 -2.591235 0.318010 3.748968 -1.762962 -2.824664 -12.007568 -5.783842 -19.228626 7.047355 -5.121406 15.875860 4.766900 -2.748700 13.815400 -6.666043 -2.026519 -1.349248 -80.649107 -10.957177 33.262850 16.308461 -22.730365 -4.256834 -1.553738 -2.646141 6.586560 17.428290 23.185603 8.416300 -7.125000 0.000000 0.000000 -12.264200 56.741300 -3.566400 5.204577 2.084699 -1.284017 84.101446 -6.114578 5.835149 -15.758103 23.770299 -3.743613 0.417450 -0.348117 5.515172 -14.332439 12.681948 -3.389700 7.125000 0.000000 0.000000 8.643500 -16.675900 5.867400 
-78.015924 106.426914 -65.384424 6.549612 2.860010 1.747027 -3.857149 2.632686 5.117016 -23.332635 -3.417111 15.788627 -1.779253 -0.375001 2.183123 1.118427 -11.149314 9.161182 0.210000 -2.950700 -8.141500 2.106150 -0.224173 -0.367852 9.029155 4.954942 -30.264540 -0.016295 -7.453058 19.508284 1.188552 -7.684025 6.069814 -0.261700 3.291400 -9.091000 -7.578293 -1.653020 8.701128 0.960094 -2.722258 0.314014 4.079369 -1.836664 -2.983573 -12.005255 -5.848226 -19.514243 7.252853 -5.178094 15.874797 4.837200 -2.735300 13.910100 -6.662647 -1.999911 -1.367647 -81.077703 -10.749206 33.713157 16.468952 -22.926802 -4.339058 -1.571113 -2.541777 6.990613 17.776903 22.248639 8.274700 -7.125000 0.000000 0.000000 -11.384100 55.788700 -3.041900 5.205800 2.074456 -1.309753 84.086048 -7.101327 5.032290 -15.823738 23.810835 -3.760432 0.427534 -0.129919 4.829812 -13.798330 8.374622 -2.136200 7.125000 0.000000 0.000000 9.120200 -21.304600 5.248900 
-78.600780 106.468860 -61.108068 6.593182 3.671487 1.968354 -3.655445 2.800236 5.203795 -22.968272 -3.875182 18.017632 -1.753301 -0.406381 2.141881 1.105638 -11.212564 11.682801 0.601200 -4.963600 -13.804700 2.033150 -0.346677 -0.304700 9.885388 4.686796 -29.554301 -0.305221 -8.135270 21.507108 1.205519 -7.823805 6.538320 -0.190300 2.809600 -7.749100 -7.893918 -1.943520 8.228345 1.072974 -3.097900 0.350835 4.480978 -2.060746 -2.597932 -11.954540 -5.863570 -19.924801 7.211917 -5.167350 16.070536 4.800200 -2.722700 14.082500 -6.672671 -1.945617 -1.392937 -81.535099 -10.050522 33.930315 16.483865 -22.988625 -4.355910 -1.581183 -2.579661 7.039506 17.905889 22.581527 8.450700 -7.125000 0.000000 0.000000 -11.424300 56.189300 -3.164300 5.252292 1.981316 -1.325932 84.210865 -7.456890 3.787868 -15.323822 23.124881 -3.522875 0.459790 -0.162447 5.263464 -14.435058 8.691616 -2.331400 7.125000 0.000000 0.000000 8.625800 -20.925900 5.032500 
-79.134564 107.062836 -56.599464 5.225628 4.367392 2.246519 -3.470518 3.030981 5.369315 -20.993816 -4.493373 19.484797 -1.764069 -0.435390 2.073803 1.268070 -10.793637 17.681574 0.351900 -3.811200 -10.546100 1.995505 -0.486865 -0.238319 11.676062 5.035493 -28.729647 -0.547251 -8.587479 22.949149 0.641028 -7.253125 12.656061 -0.046700 -1.394200 3.834300 -6.460048 -2.216874 7.890233 1.398118 -3.308339 0.101511 4.367346 -2.139331 -3.055756 -11.784647 -5.671566 -19.550008 6.895789 -4.990823 16.298297 4.646400 -2.688400 14.082800 -6.655846 -1.858235 -1.466246 -82.356903 -8.105539 33.555652 16.407151 -22.932047 -4.319956 -1.624756 -2.486496 7.372064 18.543658 21.620709 8.436200 -7.125000 0.000000 0.000000 -10.240600 55.279600 -2.604400 5.316281 1.860566 -1.385117 84.345955 -8.499807 2.467672 -14.973603 22.633425 -3.359982 0.475028 -0.169990 5.474768 -14.683338 8.596593 -2.350300 7.125000 0.000000 0.000000 8.438500 -21.006200 4.905300 
-79.524264 107.535216 -52.172940 3.458179 3.160836 2.161677 -3.707723 2.750589 5.219514 -19.010627 -4.551595 14.424568 -1.190158 3.644676 13.066860 1.567167 -9.333416 22.096646 0.218500 -3.009300 -8.304500 2.163740 -0.476396 -0.094175 14.233482 5.301309 -27.188071 -0.737247 -8.840187 24.064061 0.599699 -7.077399 13.091153 -0.140400 -2.414500 6.652700 -4.432886 -1.966756 7.560266 1.628280 -2.769128 0.059072 3.724282 -1.827537 -3.156940 -11.767329 -5.612844 -19.525899 6.976768 -4.945317 16.591123 4.717400 -2.671900 14.236900 -6.697574 -1.699206 -1.530756 -83.154102 -6.278203 31.898744 16.059218 -22.494768 -4.128067 -1.667650 -2.611837 7.945248 18.449833 22.937749 8.856500 -7.125000 0.000000 0.000000 -11.016700 56.729900 -3.194200 5.389038 1.821402 -1.381136 84.743605 -8.477274 0.362349 -14.414277 21.845936 -3.113446 0.466880 -0.178406 6.729678 -14.537033 8.195383 -2.219400 7.125000 0.000000 0.000000 8.559300 -21.423900 4.895200 
-80.039808 108.020970 -47.922114 2.760144 2.645270 1.666262 -3.793901 2.426439 4.823134 -17.904609 -4.426894 9.838559 -0.036856 6.989557 22.379181 2.394009 -6.824810 31.975550 0.000000 -0.017300 -0.047600 2.234980 -0.485755 0.164362 15.856810 4.597835 -25.273148 -0.941139 -9.133184 25.420212 0.229032 -4.964969 12.144506 -0.205900 -2.921700 8.060700 -4.023621 -1.846112 7.903249 1.809609 -2.603138 0.082387 3.890498 -1.697327 -3.308131 -11.737147 -5.452255 -19.562249 6.853841 -4.720546 16.883619 4.686900 -2.599200 14.359600 -6.736187 -1.564582 -1.589516 -83.976085 -4.472052 29.894514 15.658337 -21.984423 -3.912361 -1.713704 -2.485413 8.711217 18.747269 21.732340 8.590200 -7.125000 0.000000 0.000000 -10.070200 55.480200 -2.609700 5.476596 1.764682 -1.378532 84.689697 -8.167920 -0.242450 -14.060726 21.319498 -2.958849 0.449425 -0.199065 7.569723 -14.258763 8.278266 -2.200300 7.125000 0.000000 0.000000 8.765800 -21.335400 5.033900 
-80.600346 108.575430 -43.848810 1.558644 2.701292 1.374965 -3.751016 2.093812 4.290581 -16.287257 -5.027224 4.843589 1.566923 9.946310 31.441117 3.084329 -8.379579 37.752064 0.252300 3.231800 8.924900 2.330407 -0.527245 0.445984 17.746929 4.457945 -22.659738 -0.981610 -9.037790 25.551612 0.397132 -4.855769 9.729668 -0.295700 -3.496700 9.664900 -3.100945 -1.758295 7.997783 2.008152 -2.411364 0.099457 3.800024 -1.555104 -3.348650 -11.622343 -5.520379 -19.096730 6.863881 -4.922485 16.867147 4.631800 -2.677700 14.255300 -6.753897 -1.418408 -1.620882 -84.132647 -2.878491 30.000864 15.245681 -21.499908 -3.721415 -1.594099 -2.671155 8.780450 17.045117 23.159573 8.218500 -7.125000 0.000000 0.000000 -12.770500 56.707900 -3.706600 5.524950 1.732467 -1.369044 84.694642 -7.988642 0.423348 -14.141328 21.427961 -2.995331 0.431975 -0.201848 7.121721 -13.887225 8.538141 -2.207600 7.125000 0.000000 0.000000 9.036700 -21.078900 5.246400 
